<?xml version="1.0" standalone="no"?><!DOCTYPE svg PUBLIC "-//W3C//DTD SVG 1.1//EN" "http://www.w3.org/Graphics/SVG/1.1/DTD/svg11.dtd"><svg class="icon" width="256px" height="256.00px" viewBox="0 0 1024 1024" version="1.1" xmlns="http://www.w3.org/2000/svg"><path d="M146.879977 0A52.335992 52.335992 0 0 0 95.999985 51.167992v921.647856a49.039992 49.039992 0 0 0 15.279998 35.791994A49.839992 49.839992 0 0 0 146.863977 1023.99984h746.287883a48.559992 48.559992 0 0 0 35.567995-15.359998A50.719992 50.719992 0 0 0 943.999853 972.815848V290.015955L655.679898 0H146.847977h0.016z" fill="#FFC300" /><path d="M943.999853 287.999955H706.84789A52.127992 52.127992 0 0 1 655.999898 237.199963V0l287.951955 287.999955H943.999853z" fill="#FFFFFF" fill-opacity=".7" /><path d="M265.151959 751.999883h46.591992l11.007999-43.775994h56.319991L390.079939 751.999883h48.127993l-59.135991-190.719971h-54.783992L265.151959 751.999883z m66.303989-79.103988l4.096-16.127998c4.863999-18.943997 9.983998-41.215994 14.591997-61.18399h1.024c5.119999 19.455997 9.983998 42.239993 15.103998 61.18399l4.095999 16.127998h-38.911994zM434.111932 751.999883h46.591993l11.007998-43.775994h56.319991L559.039913 751.999883h48.127992l-59.135991-190.719971h-54.783991L434.111932 751.999883z m66.30399-79.103988l4.095999-16.127998c4.863999-18.943997 9.983998-41.215994 14.591998-61.18399h1.024c5.119999 19.455997 9.983998 42.239993 15.103997 61.18399l4.096 16.127998h-38.911994z m204.287968 82.687987c24.831996 0 46.079993-9.471999 62.20799-28.159996l-24.063996-28.671995c-8.959999 9.727998-20.991997 17.407997-36.351994 17.407997-26.879996 0-44.287993-22.015997-44.287993-59.903991 0-37.119994 20.223997-59.135991 44.799993-59.13599 13.567998 0 23.551996 6.143999 33.279994 14.847997l23.807997-29.183995c-13.055998-13.311998-33.023995-24.831996-57.855991-24.831996-48.383992 0-90.879986 36.351994-90.879986 99.839984 0 64.51199 40.959994 97.791985 89.343986 97.791985z" fill="#FFFFFF" /></svg>