<?xml version="1.0" standalone="no"?><!DOCTYPE svg PUBLIC "-//W3C//DTD SVG 1.1//EN" "http://www.w3.org/Graphics/SVG/1.1/DTD/svg11.dtd"><svg class="icon" width="256px" height="256.00px" viewBox="0 0 1024 1024" version="1.1" xmlns="http://www.w3.org/2000/svg"><path d="M146.879977 0A52.335992 52.335992 0 0 0 95.999985 51.167992v921.647856a49.039992 49.039992 0 0 0 15.279998 35.791994A49.839992 49.839992 0 0 0 146.863977 1023.99984h746.287883a48.559992 48.559992 0 0 0 35.567995-15.359998A50.719992 50.719992 0 0 0 943.999853 972.815848V290.015955L655.679898 0H146.847977h0.016z" fill="#00B578" /><path d="M943.999853 287.999955H706.84789A52.127992 52.127992 0 0 1 655.999898 237.199963V0l287.951955 287.999955H943.999853z" fill="#FFFFFF" fill-opacity=".7" /><path d="M263.743959 751.999883h46.591993l11.007998-43.775994h56.319991L388.671939 751.999883H436.799932l-59.135991-190.719971H322.87995L263.743959 751.999883z m66.303989-79.103988l4.096-16.127998c4.863999-18.943997 9.983998-41.215994 14.591998-61.18399h1.023999c5.119999 19.455997 9.983998 42.239993 15.103998 61.18399l4.095999 16.127998h-38.911994z m185.855971 82.687987c46.079993 0 72.703989-27.903996 72.703989-59.647991 0-26.879996-14.079998-42.751993-37.631994-52.223992l-23.807996-9.471998c-16.895997-6.655999-28.671996-10.751998-28.671996-21.503997 0-9.983998 8.447999-15.615998 22.527997-15.615997 14.847998 0 26.623996 5.119999 39.167993 14.591997l22.783997-28.671995c-16.639997-16.639997-39.935994-25.087996-61.95199-25.087996-40.447994 0-69.119989 25.599996-69.11999 57.599991 0 27.647996 18.687997 44.287993 38.655994 52.223992l24.319997 10.239998c16.383997 6.911999 26.879996 10.495998 26.879995 21.503997 0 10.239998-7.935999 16.639997-24.831996 16.639997-15.103998 0-32.767995-7.935999-46.079993-19.455997l-26.111995 31.487995c19.711997 18.175997 46.335993 27.391996 71.167988 27.391996zM620.351903 751.999883h45.823993v-63.231991h22.271996c40.447994 0 75.263988-19.967997 75.263989-65.279989 0-47.103993-34.559995-62.20799-76.287988-62.207991h-67.07199V751.999883z m45.823993-99.327985v-55.039991h18.687997c22.015997 0 34.303995 6.655999 34.303995 25.855996 0 18.687997-10.751998 29.183995-33.023995 29.183995h-19.967997z" fill="#FFFFFF" /></svg>