<?xml version="1.0" standalone="no"?><!DOCTYPE svg PUBLIC "-//W3C//DTD SVG 1.1//EN" "http://www.w3.org/Graphics/SVG/1.1/DTD/svg11.dtd"><svg class="icon" width="256px" height="256.00px" viewBox="0 0 1024 1024" version="1.1" xmlns="http://www.w3.org/2000/svg"><path d="M96 214.336C96 193.168 112.928 176 133.824 176h288.352a41.6 41.6 0 0 1 38.24 25.552l20.384 48.224h409.376c20.896 0 37.824 17.168 37.824 38.336v521.552C928 830.848 911.072 848 890.176 848H133.824C112.928 848 96 830.848 96 809.68v-595.36z" fill="#FFA000" /><path d="M128 304m32 0l704 0q32 0 32 32l0 432q0 32-32 32l-704 0q-32 0-32-32l0-432q0-32 32-32Z" fill="#FFFFFF" /><path d="M160 336m16 0l672 0q16 0 16 16l0 0q0 16-16 16l-672 0q-16 0-16-16l0 0q0-16 16-16Z" fill="#F1F1F1" /><path d="M160 384m16 0l288 0q16 0 16 16l0 0q0 16-16 16l-288 0q-16 0-16-16l0 0q0-16 16-16Z" fill="#F1F1F1" /><path d="M544 384m16 0l288 0q16 0 16 16l0 0q0 16-16 16l-288 0q-16 0-16-16l0 0q0-16 16-16Z" fill="#F1F1F1" /><path d="M160 464m0 0l704 0q0 0 0 0l0 32q0 0 0 0l-704 0q0 0 0 0l0-32q0 0 0 0Z" fill="#D8D8D8" /><path d="M192 408h756.368q37.808 0 37.808 38.336L928 825.664Q928 864 890.176 864H133.824Q96 864 96 825.664l58.176-379.328Q154.176 408 192 408z" fill="#FFCA28" /></svg>