<?xml version="1.0" standalone="no"?><!DOCTYPE svg PUBLIC "-//W3C//DTD SVG 1.1//EN" "http://www.w3.org/Graphics/SVG/1.1/DTD/svg11.dtd"><svg t="1770204926251" class="icon" viewBox="0 0 1024 1024" version="1.1" xmlns="http://www.w3.org/2000/svg" p-id="2896" width="256" height="256" xmlns:xlink="http://www.w3.org/1999/xlink"><path d="M146.879977 0A52.335992 52.335992 0 0 0 95.999985 51.167992v921.647856a49.039992 49.039992 0 0 0 15.279998 35.791994A49.839992 49.839992 0 0 0 146.863977 1023.99984h746.287883a48.559992 48.559992 0 0 0 35.567995-15.359998A50.719992 50.719992 0 0 0 943.999853 972.815848V290.015955L655.679898 0H146.847977h0.016z" fill="#EF7857" p-id="2897"></path><path d="M943.999853 287.999955H706.84789A52.127992 52.127992 0 0 1 655.999898 237.199963V0l287.951955 287.999955H943.999853z" fill="#FFFFFF" fill-opacity=".7" p-id="2898"></path><path d="M411.839936 755.583882c26.623996 0 50.175992-10.495998 63.48799-23.295996V643.1999h-70.911989v37.375994h30.207995v30.719995c-4.095999 3.072-11.263998 4.863999-17.919997 4.863999-35.583994 0-52.479992-22.015997-52.479992-59.903991 0-37.119994 20.223997-59.135991 48.383993-59.13599 15.871998 0 25.855996 6.399999 35.327994 14.847997l24.063996-29.183995c-13.055998-13.055998-33.023995-24.831996-60.92799-24.831996-50.943992 0-93.695985 36.351994-93.695986 99.839984 0 64.51199 41.727993 97.791985 94.463986 97.791985zM513.72792 751.999883h45.823993V561.279912h-45.823993V751.999883z m89.599986 0h45.823993v-72.703989h65.023989v-38.143994h-65.023989v-41.727994h75.775988V561.279912h-121.599981V751.999883z" fill="#FFFFFF" p-id="2899"></path></svg>