<?xml version="1.0" standalone="no"?><!DOCTYPE svg PUBLIC "-//W3C//DTD SVG 1.1//EN" "http://www.w3.org/Graphics/SVG/1.1/DTD/svg11.dtd"><svg t="1770204439297" class="icon" viewBox="0 0 1024 1024" version="1.1" xmlns="http://www.w3.org/2000/svg" p-id="1776" width="256" height="256" xmlns:xlink="http://www.w3.org/1999/xlink"><path d="M146.879977 0A52.335992 52.335992 0 0 0 95.999985 51.167992v921.647856a49.039992 49.039992 0 0 0 15.279998 35.791994A49.839992 49.839992 0 0 0 146.863977 1023.99984h746.287883a48.559992 48.559992 0 0 0 35.567995-15.359998A50.719992 50.719992 0 0 0 943.999853 972.815848V290.015955L655.679898 0H146.847977h0.016z" fill="#1476F1" p-id="1777"></path><path d="M943.999853 287.999955H706.84789A52.127992 52.127992 0 0 1 655.999898 237.199963V0l287.951955 287.999955H943.999853z" fill="#FFFFFF" fill-opacity=".7" p-id="1778"></path><path d="M263.871959 751.999883h40.959993v-65.27999c0-18.943997-3.583999-47.359993-5.887999-66.04799h1.024l15.359998 45.567993 25.855996 69.631989h25.087996l25.599996-69.631989 15.871997-45.567993h1.28c-2.56 18.687997-6.143999 47.103993-6.143999 66.04799V751.999883h41.727994V561.279912h-49.663993l-29.183995 82.431987c-3.583999 11.007998-6.655999 23.039996-10.495999 34.559995h-1.279999c-3.583999-11.519998-6.655999-23.551996-10.495999-34.559995L313.279951 561.279912h-49.407992V751.999883z m224.511965 0h45.823993v-63.231991h22.271996c40.447994 0 75.263988-19.967997 75.263988-65.279989 0-47.103993-34.559995-62.20799-76.287988-62.207991h-67.071989V751.999883z m45.823993-99.327985v-55.039991h18.687997c22.015997 0 34.303995 6.655999 34.303994 25.855996 0 18.687997-10.751998 29.183995-33.023995 29.183995h-19.967996zM727.999886 751.999883h42.495994v-43.263994h20.991996V673.919895h-20.991996v-107.775983h-56.319992l-66.303989 110.847982v31.743995H727.999886V751.999883z m0-78.079988h-36.607994l21.759997-37.375994c5.375999-11.007998 10.495998-21.503997 15.359997-32.255995h1.024c-0.512 12.031998-1.536 30.463995-1.536 42.495993v27.135996z" fill="#FFFFFF" p-id="1779"></path></svg>