<?xml version="1.0" standalone="no"?><!DOCTYPE svg PUBLIC "-//W3C//DTD SVG 1.1//EN" "http://www.w3.org/Graphics/SVG/1.1/DTD/svg11.dtd"><svg t="1770204829551" class="icon" viewBox="0 0 1024 1024" version="1.1" xmlns="http://www.w3.org/2000/svg" p-id="2377" width="256" height="256" xmlns:xlink="http://www.w3.org/1999/xlink"><path d="M146.879977 0A52.335992 52.335992 0 0 0 95.999985 51.167992v921.647856a49.039992 49.039992 0 0 0 15.279998 35.791994A49.839992 49.839992 0 0 0 146.863977 1023.99984h746.287883a48.559992 48.559992 0 0 0 35.567995-15.359998A50.719992 50.719992 0 0 0 943.999853 972.815848V290.015955L655.679898 0H146.847977h0.016z" fill="#8A73E3" p-id="2378"></path><path d="M943.999853 287.999955H706.84789A52.127992 52.127992 0 0 1 655.999898 237.199963V0l287.951955 287.999955H943.999853z" fill="#FFFFFF" fill-opacity=".7" p-id="2379"></path><path d="M344.767946 755.583882c46.079993 0 72.703989-27.903996 72.703989-59.647991 0-26.879996-14.079998-42.751993-37.631994-52.223992l-23.807997-9.471998c-16.895997-6.655999-28.671996-10.751998-28.671995-21.503997 0-9.983998 8.447999-15.615998 22.527996-15.615997 14.847998 0 26.623996 5.119999 39.167994 14.591997l22.783997-28.671995c-16.639997-16.639997-39.935994-25.087996-61.951991-25.087996-40.447994 0-69.119989 25.599996-69.119989 57.599991 0 27.647996 18.687997 44.287993 38.655994 52.223992l24.319996 10.239998c16.383997 6.911999 26.879996 10.495998 26.879996 21.503997 0 10.239998-7.935999 16.639997-24.831996 16.639997-15.103998 0-32.767995-7.935999-46.079993-19.455997L273.599957 728.191886c19.711997 18.175997 46.335993 27.391996 71.167989 27.391996zM481.983925 751.999883h55.039991l57.087991-190.719971H547.519914l-21.503996 87.039987c-5.375999 20.479997-9.215999 39.935994-14.847998 60.92799h-1.28c-5.375999-20.991997-9.215999-40.447994-14.847997-60.92799l-21.759997-87.039987h-48.383992L481.983925 751.999883z m214.527966 3.583999c26.623996 0 50.175992-10.495998 63.48799-23.295996V643.1999h-70.911989v37.375994h30.207996v30.719995c-4.095999 3.072-11.263998 4.863999-17.919998 4.863999-35.583994 0-52.479992-22.015997-52.479991-59.903991 0-37.119994 20.223997-59.135991 48.383992-59.13599 15.871998 0 25.855996 6.399999 35.327995 14.847997l24.063996-29.183995c-13.055998-13.055998-33.023995-24.831996-60.927991-24.831996-50.943992 0-93.695985 36.351994-93.695985 99.839984 0 64.51199 41.727993 97.791985 94.463985 97.791985z" fill="#FFFFFF" p-id="2380"></path></svg>