<?xml version="1.0" standalone="no"?><!DOCTYPE svg PUBLIC "-//W3C//DTD SVG 1.1//EN" "http://www.w3.org/Graphics/SVG/1.1/DTD/svg11.dtd"><svg t="1770203411468" class="icon" viewBox="0 0 1024 1024" version="1.1" xmlns="http://www.w3.org/2000/svg" p-id="19131" width="256" height="256" xmlns:xlink="http://www.w3.org/1999/xlink"><path d="M146.879977 0A52.335992 52.335992 0 0 0 95.999985 51.167992v921.647856a49.039992 49.039992 0 0 0 15.279998 35.791994A49.839992 49.839992 0 0 0 146.863977 1023.99984h746.287883a48.559992 48.559992 0 0 0 35.567995-15.359998A50.719992 50.719992 0 0 0 943.999853 972.815848V290.015955L655.679898 0H146.847977h0.016z" fill="#5293F3" p-id="19132"></path><path d="M943.999853 287.999955H706.84789A52.127992 52.127992 0 0 1 655.999898 237.199963V0l287.951955 287.999955H943.999853z" fill="#FFFFFF" fill-opacity=".7" p-id="19133"></path><path d="M330.047948 755.583882c42.751993 0 62.46399-30.719995 62.463991-68.095989V561.279912h-45.823993v122.623981c0 24.831996-7.935999 32.255995-22.783997 32.255995-9.215999 0-18.943997-5.887999-25.599996-18.943997l-30.975995 23.295996c13.567998 23.551996 33.023995 35.071995 62.71999 35.071995zM435.263932 751.999883h45.823993v-63.231991h22.271996c40.447994 0 75.263988-19.967997 75.263989-65.279989 0-47.103993-34.559995-62.20799-76.287988-62.207991h-67.07199V751.999883z m45.823993-99.327985v-55.039991h18.687997c22.015997 0 34.303995 6.655999 34.303995 25.855996 0 18.687997-10.751998 29.183995-33.023995 29.183995h-19.967997z m215.807966 102.911984c26.623996 0 50.175992-10.495998 63.48799-23.295996V643.1999h-70.911989v37.375994h30.207996v30.719995c-4.095999 3.072-11.263998 4.863999-17.919998 4.863999-35.583994 0-52.479992-22.015997-52.479991-59.903991 0-37.119994 20.223997-59.135991 48.383992-59.13599 15.871998 0 25.855996 6.399999 35.327994 14.847997l24.063997-29.183995c-13.055998-13.055998-33.023995-24.831996-60.927991-24.831996-50.943992 0-93.695985 36.351994-93.695985 99.839984 0 64.51199 41.727993 97.791985 94.463985 97.791985z" fill="#FFFFFF" p-id="19134"></path></svg>