<svg xmlns="http://www.w3.org/2000/svg" viewBox="0 0 24 24">
  <path
    fill="currentColor"
    d="M12 2C6.48 2 2 6.6 2 12.28c0 4.54 2.87 8.38 6.84 9.74.5.1.68-.22.68-.48l-.01-1.7c-2.78.62-3.37-1.1-3.37-1.1-.45-1.2-1.1-1.52-1.1-1.52-.9-.64.07-.63.07-.63 1 .07 1.53 1.06 1.53 1.06.9 1.57 2.36 1.12 2.93.85.09-.67.35-1.12.63-1.38-2.22-.26-4.56-1.14-4.56-5.06 0-1.12.39-2.04 1.03-2.76-.1-.26-.45-1.3.1-2.72 0 0 .84-.28 2.75 1.05a9.1 9.1 0 0 1 2.5-.35c.85 0 1.7.12 2.5.35 1.9-1.33 2.74-1.05 2.74-1.05.56 1.42.21 2.46.1 2.72.64.72 1.03 1.64 1.03 2.76 0 3.93-2.35 4.8-4.58 5.06.36.32.68.95.68 1.92l-.01 2.84c0 .27.18.6.69.48A10.08 10.08 0 0 0 22 12.28C22 6.6 17.52 2 12 2Z"
  />
</svg>

