<?xml version="1.0" standalone="no"?><!DOCTYPE svg PUBLIC "-//W3C//DTD SVG 1.1//EN" "http://www.w3.org/Graphics/SVG/1.1/DTD/svg11.dtd"><svg class="icon" width="256px" height="256.00px" viewBox="0 0 1024 1024" version="1.1" xmlns="http://www.w3.org/2000/svg"><path d="M146.879977 0A52.335992 52.335992 0 0 0 95.999985 51.167992v921.647856a49.039992 49.039992 0 0 0 15.279998 35.791994A49.839992 49.839992 0 0 0 146.863977 1023.99984h746.287883a48.559992 48.559992 0 0 0 35.567995-15.359998A50.719992 50.719992 0 0 0 943.999853 972.815848V290.015955L655.679898 0H146.847977h0.016z" fill="#FF8F1F" /><path d="M943.999853 287.999955H706.84789A52.127992 52.127992 0 0 1 655.999898 237.199963V0l287.951955 287.999955H943.999853z" fill="#FFFFFF" fill-opacity=".7" /><path d="M430.015933 755.583882c42.751993 0 62.46399-30.719995 62.46399-68.095989V561.279912h-45.823993v122.623981c0 24.831996-7.935999 32.255995-22.783996 32.255995-9.215999 0-18.943997-5.887999-25.599996-18.943997l-30.975995 23.295996c13.567998 23.551996 33.023995 35.071995 62.71999 35.071995z m164.351974 0c46.079993 0 72.703989-27.903996 72.703989-59.647991 0-26.879996-14.079998-42.751993-37.631994-52.223992l-23.807997-9.471998c-16.895997-6.655999-28.671996-10.751998-28.671995-21.503997 0-9.983998 8.447999-15.615998 22.527996-15.615997 14.847998 0 26.623996 5.119999 39.167994 14.591997l22.783997-28.671995c-16.639997-16.639997-39.935994-25.087996-61.951991-25.087996-40.447994 0-69.119989 25.599996-69.119989 57.599991 0 27.647996 18.687997 44.287993 38.655994 52.223992l24.319996 10.239998c16.383997 6.911999 26.879996 10.495998 26.879996 21.503997 0 10.239998-7.935999 16.639997-24.831996 16.639997-15.103998 0-32.767995-7.935999-46.079993-19.455997L523.199918 728.191886c19.711997 18.175997 46.335993 27.391996 71.167989 27.391996z" fill="#FFFFFF" /></svg>