<?xml version="1.0" standalone="no"?><!DOCTYPE svg PUBLIC "-//W3C//DTD SVG 1.1//EN" "http://www.w3.org/Graphics/SVG/1.1/DTD/svg11.dtd"><svg class="icon" width="256px" height="256.00px" viewBox="0 0 1024 1024" version="1.1" xmlns="http://www.w3.org/2000/svg"><path d="M146.879977 0A52.335992 52.335992 0 0 0 95.999985 51.167992v921.647856a49.039992 49.039992 0 0 0 15.279998 35.791994A49.839992 49.839992 0 0 0 146.863977 1023.99984h746.287883a48.559992 48.559992 0 0 0 35.567995-15.359998A50.719992 50.719992 0 0 0 943.999853 972.815848V290.015955L655.679898 0H146.847977h0.016z" fill="#00B578" fill-opacity=".79" /><path d="M943.999853 287.999955H706.84789A52.127992 52.127992 0 0 1 655.999898 237.199963V0l287.951955 287.999955H943.999853z" fill="#FFFFFF" fill-opacity=".7" /><path d="M263.871959 751.999883h40.959993v-65.27999c0-18.943997-3.583999-47.359993-5.887999-66.04799h1.024l15.359998 45.567993 25.855996 69.631989h25.087996l25.599996-69.631989 15.871997-45.567993h1.28c-2.56 18.687997-6.143999 47.103993-6.143999 66.04799V751.999883h41.727994V561.279912h-49.663993l-29.183995 82.431987c-3.583999 11.007998-6.655999 23.039996-10.495999 34.559995h-1.279999c-3.583999-11.519998-6.655999-23.551996-10.495999-34.559995L313.279951 561.279912h-49.407992V751.999883z m224.511965 0h45.823993v-63.231991h22.271996c40.447994 0 75.263988-19.967997 75.263988-65.279989 0-47.103993-34.559995-62.20799-76.287988-62.207991h-67.071989V751.999883z m45.823993-99.327985v-55.039991h18.687997c22.015997 0 34.303995 6.655999 34.303994 25.855996 0 18.687997-10.751998 29.183995-33.023995 29.183995h-19.967996z m179.455971 102.911984c37.887994 0 70.399989-19.455997 70.399989-54.271992 0-23.807996-15.615998-38.911994-36.607994-45.055993v-1.279999c19.967997-8.447999 30.463995-22.271997 30.463995-40.959994 0-32.767995-25.855996-51.455992-65.279989-51.455992-22.527996 0-41.471994 9.215999-59.135991 23.807996l23.039996 27.903996c11.519998-10.239998 21.247997-16.127997 34.047995-16.127997 14.079998 0 21.759997 6.911999 21.759997 19.455997 0 13.823998-10.239998 23.551996-42.751994 23.551996v32.255995c39.935994 0 48.639992 9.215999 48.639993 24.831996 0 13.311998-11.519998 20.479997-29.183996 20.479997-14.847998 0-28.159996-7.679999-39.679994-18.431997l-20.991996 28.671995c13.823998 16.127997 35.071995 26.623996 65.279989 26.623996z" fill="#FFFFFF" /></svg>