<?xml version="1.0" standalone="no"?><!DOCTYPE svg PUBLIC "-//W3C//DTD SVG 1.1//EN" "http://www.w3.org/Graphics/SVG/1.1/DTD/svg11.dtd"><svg class="icon" width="256px" height="256.00px" viewBox="0 0 1024 1024" version="1.1" xmlns="http://www.w3.org/2000/svg"><path d="M146.879977 0A52.335992 52.335992 0 0 0 95.999985 51.167992v921.647856a49.039992 49.039992 0 0 0 15.279998 35.791994A49.839992 49.839992 0 0 0 146.863977 1023.99984h746.287883a48.559992 48.559992 0 0 0 35.567995-15.359998A50.719992 50.719992 0 0 0 943.999853 972.815848V290.015955L655.679898 0H146.847977h0.016z" fill="#1AC380" /><path d="M943.999853 287.999955H706.84789A52.127992 52.127992 0 0 1 655.999898 237.199963V0l287.951955 287.999955H943.999853z" fill="#FFFFFF" fill-opacity=".7" /><path d="M262.463959 751.999883h45.823993v-63.231991h22.271996c40.447994 0 75.263988-19.967997 75.263989-65.279989 0-47.103993-34.559995-62.20799-76.287988-62.207991h-67.07199V751.999883z m45.823993-99.327985v-55.039991h18.687997c22.015997 0 34.303995 6.655999 34.303995 25.855996 0 18.687997-10.751998 29.183995-33.023995 29.183995h-19.967997zM438.335932 751.999883h43.519993v-63.231991c0-23.039996-3.839999-49.151992-5.887999-70.399989h1.279999l18.687998 41.727994L543.039915 751.999883h46.591993V561.279912h-43.519993v63.23199c0 22.783996 3.839999 50.175992 6.143999 70.399989h-1.28l-18.687997-42.239993-47.359993-91.391986h-46.591992V751.999883z m281.343956 3.583999c26.623996 0 50.175992-10.495998 63.48799-23.295996V643.1999h-70.911989v37.375994h30.207995v30.719995c-4.095999 3.072-11.263998 4.863999-17.919997 4.863999-35.583994 0-52.479992-22.015997-52.479992-59.903991 0-37.119994 20.223997-59.135991 48.383992-59.13599 15.871998 0 25.855996 6.399999 35.327995 14.847997l24.063996-29.183995c-13.055998-13.055998-33.023995-24.831996-60.92799-24.831996-50.943992 0-93.695985 36.351994-93.695986 99.839984 0 64.51199 41.727993 97.791985 94.463986 97.791985z" fill="#FFFFFF" /></svg>