<?xml version="1.0" standalone="no"?><!DOCTYPE svg PUBLIC "-//W3C//DTD SVG 1.1//EN" "http://www.w3.org/Graphics/SVG/1.1/DTD/svg11.dtd"><svg class="icon" width="256px" height="256.00px" viewBox="0 0 1024 1024" version="1.1" xmlns="http://www.w3.org/2000/svg"><path d="M146.879977 0A52.335992 52.335992 0 0 0 95.999985 51.167992v921.647856a49.039992 49.039992 0 0 0 15.279998 35.791994A49.839992 49.839992 0 0 0 146.863977 1023.99984h746.287883a48.559992 48.559992 0 0 0 35.567995-15.359998A50.719992 50.719992 0 0 0 943.999853 972.815848V290.015955L655.679898 0H146.847977h0.016z" fill="#FF5900" /><path d="M943.999853 287.999955H706.84789A52.127992 52.127992 0 0 1 655.999898 237.199963V0l287.951955 287.999955H943.999853z" fill="#FFFFFF" fill-opacity=".7" /><path d="M323.519949 648.831899v-51.199992h20.479997c21.759997 0 33.535995 5.887999 33.535995 23.807996s-11.775998 27.391996-33.535995 27.391996h-20.479997zM380.607941 751.999883h51.199992l-42.495994-75.519989c19.711997-9.215999 32.767995-27.135996 32.767995-55.039991 0-46.079993-33.791995-60.159991-74.495988-60.159991h-69.887989V751.999883h45.823992v-67.07199h22.015997L380.607941 751.999883z m51.455991 0h46.591993l11.007998-43.775994h56.319992L556.991913 751.999883h48.127992l-59.13599-190.719971H491.199923L432.063932 751.999883z m66.30399-79.103988l4.095999-16.127998c4.863999-18.943997 9.983998-41.215994 14.591998-61.18399h1.024c5.119999 19.455997 9.983998 42.239993 15.103998 61.18399l4.095999 16.127998h-38.911994z m172.543973-24.063996v-51.199992h20.479997c21.759997 0 33.535995 5.887999 33.535995 23.807996s-11.775998 27.391996-33.535995 27.391996h-20.479997zM727.999886 751.999883h51.199992l-42.495993-75.519989c19.711997-9.215999 32.767995-27.135996 32.767995-55.039991 0-46.079993-33.791995-60.159991-74.495989-60.159991h-69.887989V751.999883h45.823993v-67.07199h22.015997L727.999886 751.999883z" fill="#FFFFFF" /></svg>