<?xml version="1.0" standalone="no"?><!DOCTYPE svg PUBLIC "-//W3C//DTD SVG 1.1//EN" "http://www.w3.org/Graphics/SVG/1.1/DTD/svg11.dtd"><svg t="1770205854625" class="icon" viewBox="0 0 1024 1024" version="1.1" xmlns="http://www.w3.org/2000/svg" p-id="9821" width="256" height="256" xmlns:xlink="http://www.w3.org/1999/xlink"><path d="M703.936 166.4a27.52 27.52 0 0 1 22.4 12.8l192 332.8a26.24 26.24 0 0 1 0 25.6l-192 332.16a27.52 27.52 0 0 1-22.4 12.8h-384a26.88 26.88 0 0 1-22.4-12.8l-192-332.16a26.24 26.24 0 0 1 0-25.6l192-332.8a26.88 26.88 0 0 1 22.4-12.8h384z m0-102.4h-384a128 128 0 0 0-110.72 64l-192 332.8a128 128 0 0 0 0 128l192 332.16a128 128 0 0 0 110.72 64h384a128 128 0 0 0 110.72-64l192-332.16a128 128 0 0 0 0-128l-192-332.8a128 128 0 0 0-110.72-64z" fill="#707070" p-id="9822"></path><path d="M511.936 435.2a89.6 89.6 0 1 1 0 179.2 89.6 89.6 0 0 1 0-179.2z m0-102.4a192 192 0 1 0 0 384 192 192 0 0 0 0-384z" fill="#707070" p-id="9823"></path></svg>