<?xml version="1.0" standalone="no"?><!DOCTYPE svg PUBLIC "-//W3C//DTD SVG 1.1//EN" "http://www.w3.org/Graphics/SVG/1.1/DTD/svg11.dtd"><svg t="1770206582976" class="icon" viewBox="0 0 1024 1024" version="1.1" xmlns="http://www.w3.org/2000/svg" p-id="2781" width="256" height="256" xmlns:xlink="http://www.w3.org/1999/xlink"><path d="M85.333333 0a42.666667 42.666667 0 0 1 42.666667 42.666667v938.666666a42.666667 42.666667 0 1 1-85.333333 0V42.666667a42.666667 42.666667 0 0 1 42.666666-42.666667zM512 0a42.666667 42.666667 0 0 1 42.666667 42.666667v938.666666a42.666667 42.666667 0 1 1-85.333334 0V42.666667a42.666667 42.666667 0 0 1 42.666667-42.666667zM938.666667 0a42.666667 42.666667 0 0 1 42.666666 42.666667v938.666666a42.666667 42.666667 0 1 1-85.333333 0V42.666667a42.666667 42.666667 0 0 1 42.666667-42.666667z" p-id="2782" fill="#515151"></path></svg>