<?xml version="1.0" standalone="no"?><!DOCTYPE svg PUBLIC "-//W3C//DTD SVG 1.1//EN" "http://www.w3.org/Graphics/SVG/1.1/DTD/svg11.dtd"><svg t="1770206499636" class="icon" viewBox="0 0 1024 1024" version="1.1" xmlns="http://www.w3.org/2000/svg" p-id="3597" width="256" height="256" xmlns:xlink="http://www.w3.org/1999/xlink"><path d="M341.333333 68.266667c20.48 0 34.133333 13.653333 34.133334 34.133333v238.933333c0 20.48-13.653333 34.133333-34.133334 34.133334H102.4c-20.48 0-34.133333-13.653333-34.133333-34.133334V102.4c0-20.48 13.653333-34.133333 34.133333-34.133333h238.933333m0-68.266667H102.4C44.373333 0 0 44.373333 0 102.4v238.933333c0 58.026667 44.373333 102.4 102.4 102.4h238.933333c58.026667 0 102.4-44.373333 102.4-102.4V102.4c0-58.026667-44.373333-102.4-102.4-102.4zM921.6 68.266667c20.48 0 34.133333 13.653333 34.133333 34.133333v238.933333c0 20.48-13.653333 34.133333-34.133333 34.133334h-238.933333c-20.48 0-34.133333-13.653333-34.133334-34.133334V102.4c0-20.48 13.653333-34.133333 34.133334-34.133333h238.933333m0-68.266667h-238.933333c-58.026667 0-102.4 44.373333-102.4 102.4v238.933333c0 58.026667 44.373333 102.4 102.4 102.4h238.933333c58.026667 0 102.4-44.373333 102.4-102.4V102.4c0-58.026667-44.373333-102.4-102.4-102.4zM921.6 648.533333c20.48 0 34.133333 13.653333 34.133333 34.133334v238.933333c0 20.48-13.653333 34.133333-34.133333 34.133333h-238.933333c-20.48 0-34.133333-13.653333-34.133334-34.133333v-238.933333c0-20.48 13.653333-34.133333 34.133334-34.133334h238.933333m0-68.266666h-238.933333c-58.026667 0-102.4 44.373333-102.4 102.4v238.933333c0 58.026667 44.373333 102.4 102.4 102.4h238.933333c58.026667 0 102.4-44.373333 102.4-102.4v-238.933333c0-58.026667-44.373333-102.4-102.4-102.4zM341.333333 648.533333c20.48 0 34.133333 13.653333 34.133334 34.133334v238.933333c0 20.48-13.653333 34.133333-34.133334 34.133333H102.4c-20.48 0-34.133333-13.653333-34.133333-34.133333v-238.933333c0-20.48 13.653333-34.133333 34.133333-34.133334h238.933333m0-68.266666H102.4c-58.026667 0-102.4 44.373333-102.4 102.4v238.933333c0 58.026667 44.373333 102.4 102.4 102.4h238.933333c58.026667 0 102.4-44.373333 102.4-102.4v-238.933333c0-58.026667-44.373333-102.4-102.4-102.4z" fill="#515151" p-id="3598"></path></svg>