<?xml version="1.0" standalone="no"?><!DOCTYPE svg PUBLIC "-//W3C//DTD SVG 1.1//EN" "http://www.w3.org/Graphics/SVG/1.1/DTD/svg11.dtd"><svg class="icon" width="256px" height="256.00px" viewBox="0 0 1024 1024" version="1.1" xmlns="http://www.w3.org/2000/svg"><path d="M146.879977 0A52.335992 52.335992 0 0 0 95.999985 51.167992v921.647856a49.039992 49.039992 0 0 0 15.279998 35.791994A49.839992 49.839992 0 0 0 146.863977 1023.99984h746.287883a48.559992 48.559992 0 0 0 35.567995-15.359998A50.719992 50.719992 0 0 0 943.999853 972.815848V290.015955L655.679898 0H146.847977h0.016z" fill="#00B578" /><path d="M943.999853 287.999955H706.84789A52.127992 52.127992 0 0 1 655.999898 237.199963V0l287.951955 287.999955H943.999853z" fill="#FFFFFF" fill-opacity=".7" /><path d="M274.751957 751.999883h56.575991l16.639998-82.943988c2.816-14.591998 5.119999-29.951995 7.679998-44.287993h1.024c1.792 14.335998 4.351999 29.695995 7.423999 44.287993L381.24794 751.999883h57.599991l33.023995-190.719971h-43.263993l-12.543998 87.039987c-2.304 19.711997-4.863999 39.935994-7.167999 60.41599h-1.28c-3.839999-20.479997-7.167999-40.959994-11.007998-60.41599l-19.711997-87.039987H338.239947l-19.455997 87.039987c-3.839999 19.711997-7.679999 39.935994-11.263998 60.41599h-1.024c-2.56-20.479997-5.119999-40.447994-7.679999-60.41599l-12.031998-87.039987h-46.591993L274.751957 751.999883z m198.911969 0h46.591993l11.007998-43.775994h56.319991L598.591906 751.999883h48.127993l-59.135991-190.719971H532.799917L473.663926 751.999883z m66.30399-79.103988l4.095999-16.127998c4.863999-18.943997 9.983998-41.215994 14.591998-61.18399h1.024c5.119999 19.455997 9.983998 42.239993 15.103997 61.18399l4.096 16.127998h-38.911994zM693.823892 751.999883h55.039991l57.087991-190.719971H759.359881l-21.503996 87.039987c-5.375999 20.479997-9.215999 39.935994-14.847998 60.92799h-1.28c-5.375999-20.991997-9.215999-40.447994-14.847997-60.92799l-21.759997-87.039987h-48.383992L693.823892 751.999883z" fill="#FFFFFF" /></svg>