<?xml version="1.0" standalone="no"?><!DOCTYPE svg PUBLIC "-//W3C//DTD SVG 1.1//EN" "http://www.w3.org/Graphics/SVG/1.1/DTD/svg11.dtd"><svg class="icon" width="256px" height="256.00px" viewBox="0 0 1024 1024" version="1.1" xmlns="http://www.w3.org/2000/svg"><path d="M146.879977 0A52.335992 52.335992 0 0 0 95.999985 51.167992v921.647856a49.039992 49.039992 0 0 0 15.279998 35.791994A49.839992 49.839992 0 0 0 146.863977 1023.99984h746.287883a48.559992 48.559992 0 0 0 35.567995-15.359998A50.719992 50.719992 0 0 0 943.999853 972.815848V290.015955L655.679898 0H146.847977h0.016z" fill="#1AC380" /><path d="M943.999853 287.999955H706.84789A52.127992 52.127992 0 0 1 655.999898 237.199963V0l287.951955 287.999955H943.999853z" fill="#FFFFFF" fill-opacity=".7" /><path d="M285.119955 751.999883h48.639993l16.383997-37.119995c4.351999-9.983998 8.703999-19.967997 13.055998-31.743995h1.024c5.119999 11.775998 9.471999 21.759997 14.079998 31.743995L395.967938 751.999883h50.943992l-52.479992-95.999985 49.151993-94.719986H395.199938l-13.823998 34.303995c-3.839999 8.959999-7.935999 18.943997-12.287998 31.231995h-1.024c-5.375999-12.287998-9.471999-22.271997-13.823997-31.231995l-15.359998-34.303995h-50.943992l49.407992 92.671986L285.119955 751.999883z m186.879971 0h120.063981v-38.399994h-74.239988v-152.319977H471.999926V751.999883z m203.775968 3.583999c46.079993 0 72.703989-27.903996 72.703989-59.647991 0-26.879996-14.079998-42.751993-37.631994-52.223992l-23.807996-9.471998c-16.895997-6.655999-28.671996-10.751998-28.671996-21.503997 0-9.983998 8.447999-15.615998 22.527997-15.615997 14.847998 0 26.623996 5.119999 39.167993 14.591997l22.783997-28.671995c-16.639997-16.639997-39.935994-25.087996-61.95199-25.087996-40.447994 0-69.119989 25.599996-69.11999 57.599991 0 27.647996 18.687997 44.287993 38.655994 52.223992l24.319997 10.239998c16.383997 6.911999 26.879996 10.495998 26.879995 21.503997 0 10.239998-7.935999 16.639997-24.831996 16.639997-15.103998 0-32.767995-7.935999-46.079993-19.455997l-26.111995 31.487995c19.711997 18.175997 46.335993 27.391996 71.167988 27.391996z" fill="#FFFFFF" /></svg>